<?xml version="1.0" encoding="UTF-8" standalone="no"?>
<svg
   width="226.31976"
   height="127.71837"
   viewBox="0 0 169.73973 95.788777"
   version="1.1"
   id="svg32"
   sodipodi:docname="pgmacs-logo.svg"
   xml:space="preserve"
   inkscape:version="1.2.2 (b0a8486541, 2022-12-01)"
   xmlns:inkscape="http://www.inkscape.org/namespaces/inkscape"
   xmlns:sodipodi="http://sodipodi.sourceforge.net/DTD/sodipodi-0.dtd"
   xmlns="http://www.w3.org/2000/svg"
   xmlns:svg="http://www.w3.org/2000/svg"><defs
     id="defs36" /><sodipodi:namedview
     id="namedview34"
     pagecolor="#ffffff"
     bordercolor="#666666"
     borderopacity="1.0"
     inkscape:showpageshadow="2"
     inkscape:pageopacity="0.0"
     inkscape:pagecheckerboard="0"
     inkscape:deskcolor="#d1d1d1"
     showgrid="false"
     inkscape:zoom="1.9242167"
     inkscape:cx="181.8922"
     inkscape:cy="164.22267"
     inkscape:window-width="1920"
     inkscape:window-height="1011"
     inkscape:window-x="0"
     inkscape:window-y="0"
     inkscape:window-maximized="1"
     inkscape:current-layer="g2437" /><style
     id="style2"><![CDATA[.B{stroke-width:12.465}.C{stroke-linecap:round}.D{stroke-linejoin:round}.E{stroke-linejoin:miter}]]></style><g
     fill="none"
     stroke="#ffffff"
     id="g28"
     transform="matrix(0.12342926,0,0,0.11866706,23.586224,32.107742)"><path
       d="m 323.205,324.227 c 2.833,-23.601 1.984,-27.062 19.563,-23.239 l 4.463,0.392 c 13.517,0.615 31.199,-2.174 41.587,-7 22.362,-10.376 35.622,-27.7 13.572,-23.148 -50.297,10.376 -53.755,-6.655 -53.755,-6.655 C 401.746,185.774 423.948,85.741 404.784,61.255 352.514,-5.534 262.036,26.049 260.522,26.869 l -0.482,0.089 c -9.938,-2.062 -21.06,-3.294 -33.554,-3.496 -22.761,-0.374 -40.032,5.967 -53.133,15.904 0,0 -161.408,-66.498 -153.899,83.628 1.597,31.936 45.777,241.655 98.47,178.31 19.259,-23.163 37.871,-42.748 37.871,-42.748 9.242,6.14 20.307,9.272 31.912,8.147 l 0.897,-0.765 c -0.281,2.876 -0.157,5.689 0.359,9.019 -13.572,15.167 -9.584,17.83 -36.723,23.416 -27.457,5.659 -11.326,15.734 -0.797,18.367 12.768,3.193 42.305,7.716 62.268,-20.224 l -0.795,3.188 c 5.325,4.26 4.965,30.619 5.72,49.452 0.755,18.833 2.017,36.409 5.856,46.771 3.839,10.362 8.369,37.05 44.036,29.406 29.809,-6.388 52.6,-15.582 54.677,-101.107"
       fill="#000000"
       stroke="#000000"
       stroke-width="37.395"
       stroke-linecap="butt"
       class="E"
       id="path4" /><path
       d="m 402.395,271.23 c -50.302,10.376 -53.76,-6.655 -53.76,-6.655 53.111,-78.808 75.313,-178.843 56.153,-203.326 -52.27,-66.785 -142.752,-35.2 -144.262,-34.38 l -0.486,0.087 c -9.938,-2.063 -21.06,-3.292 -33.56,-3.496 -22.761,-0.373 -40.026,5.967 -53.127,15.902 0,0 -161.411,-66.495 -153.904,83.63 1.597,31.938 45.776,241.657 98.471,178.312 19.26,-23.163 37.869,-42.748 37.869,-42.748 9.243,6.14 20.308,9.272 31.908,8.147 l 0.901,-0.765 c -0.28,2.876 -0.152,5.689 0.361,9.019 -13.575,15.167 -9.586,17.83 -36.723,23.416 -27.459,5.659 -11.328,15.734 -0.796,18.367 12.768,3.193 42.307,7.716 62.266,-20.224 l -0.796,3.188 c 5.319,4.26 9.054,27.711 8.428,48.969 -0.626,21.258 -1.044,35.854 3.147,47.254 4.191,11.4 8.368,37.05 44.042,29.406 29.809,-6.388 45.256,-22.942 47.405,-50.555 1.525,-19.631 4.976,-16.729 5.194,-34.28 l 2.768,-8.309 c 3.192,-26.611 0.507,-35.196 18.872,-31.203 l 4.463,0.392 c 13.517,0.615 31.208,-2.174 41.591,-7 22.358,-10.376 35.618,-27.7 13.573,-23.148 z"
       fill="#336791"
       stroke="none"
       id="path6" /><g
       class="C B"
       id="g12"><path
         d="m 215.866,286.484 c -1.385,49.516 0.348,99.377 5.193,111.495 4.845,12.118 15.223,35.688 50.9,28.045 29.806,-6.39 40.651,-18.756 45.357,-46.051 3.466,-20.082 10.148,-75.854 11.005,-87.281 M 173.104,38.256 c 0,0 -161.521,-66.016 -154.012,84.109 1.597,31.938 45.779,241.664 98.473,178.316 19.256,-23.166 36.671,-41.335 36.671,-41.335 M 260.349,26.207 c -5.591,1.753 89.848,-34.889 144.087,34.417 19.159,24.484 -3.043,124.519 -56.153,203.329"
         class="D"
         id="path8" /><!-- path4 --><path
         d="m 348.282,263.953 c 0,0 3.461,17.036 53.764,6.653 22.04,-4.552 8.776,12.774 -13.577,23.155 -18.345,8.514 -59.474,10.696 -60.146,-1.069 -1.729,-30.355 21.647,-21.133 19.96,-28.739 -1.525,-6.85 -11.979,-13.573 -18.894,-30.338 -6.037,-14.633 -82.796,-126.849 21.287,-110.183 3.813,-0.789 -27.146,-99.002 -124.553,-100.599 -97.385,-1.597 -94.19,119.762 -94.19,119.762"
         stroke-linejoin="bevel"
         id="path10" /></g><g
       class="D B"
       id="g18"><path
         d="m 188.604,274.334 c -13.577,15.166 -9.584,17.829 -36.723,23.417 -27.459,5.66 -11.326,15.733 -0.797,18.365 12.768,3.195 42.307,7.718 62.266,-20.229 6.078,-8.509 -0.036,-22.086 -8.385,-25.547 -4.034,-1.671 -9.428,-3.765 -16.361,3.994 z"
         id="path14" /><path
         d="m 187.715,274.069 c -1.368,-8.917 2.93,-19.528 7.536,-31.942 6.922,-18.626 22.893,-37.255 10.117,-96.339 -9.523,-44.029 -73.396,-9.163 -73.436,-3.193 -0.04,5.97 2.889,30.26 -1.067,58.548 -5.162,36.913 23.488,68.132 56.479,64.938"
         class="C"
         id="path16" /></g><g
       fill="#ffffff"
       class="E"
       id="g24"><path
         d="m 172.517,141.7 c -0.288,2.039 3.733,7.48 8.976,8.207 5.234,0.73 9.714,-3.522 9.998,-5.559 0.284,-2.037 -3.732,-4.285 -8.977,-5.015 -5.237,-0.731 -9.719,0.333 -9.996,2.367 z"
         stroke-width="4.155"
         id="path20" /><path
         d="m 331.941,137.543 c 0.284,2.039 -3.732,7.48 -8.976,8.207 -5.238,0.73 -9.718,-3.522 -10.005,-5.559 -0.277,-2.039 3.74,-4.285 8.979,-5.015 5.239,-0.73 9.718,0.333 10.002,2.368 z"
         stroke-width="2.078"
         id="path22" /></g><path
       d="m 350.676,123.432 c 0.863,15.994 -3.445,26.888 -3.988,43.914 -0.804,24.748 11.799,53.074 -7.191,81.435"
       class="B C D"
       id="path26" /></g><script
     id="script30" /><g
     id="g2437"
     transform="matrix(0.74999981,0,0,0.74999981,-6.2900861,1.1627658)"><g
       id="g2240"
       style="fill:#000000;fill-opacity:1;stroke:none"
       transform="translate(-4.9932804,4.5988275)"><path
         style="fill:#000000;fill-opacity:1;fill-rule:evenodd;stroke:none;stroke-width:0.125;stroke-linecap:butt;stroke-linejoin:miter;stroke-miterlimit:4;stroke-dasharray:none;stroke-opacity:1"
         d="m 176.57988,37.972907 c -1.59278,1.03506 -7.7054,13.980618 -7.80158,15.560314 11.86356,19.580712 33.80125,-13.454437 37.77551,-28.552457 0,0 -10.38257,18.198239 -19.78064,18.546175 -11.01641,0.407851 -8.59763,-6.590966 -10.19329,-5.554032 z"
         id="path2242"
         sodipodi:nodetypes="cccsz" /><path
         style="fill:#000000;fill-opacity:1;fill-rule:evenodd;stroke:none;stroke-width:0.125;stroke-linecap:butt;stroke-linejoin:round;stroke-miterlimit:4;stroke-dasharray:none;stroke-opacity:1"
         d="m 22.47173,15.758997 -6.6617,16.726759 c 0,0 4.08049,9.732348 10.68066,10.352439 15.12668,1.421164 31.96176,-27.218658 36.7034,-27.079198 4.74165,0.13946 14.35944,7.663301 19.47161,18.163659 6.72965,-13.163585 14.92072,-19.011431 28.50269,-9.255641 7.90203,5.675951 24.42095,28.128211 34.3072,29.234334 10.70462,1.197688 19.90239,-8.988532 24.33579,-27.61311 -6.13625,7.949229 -8.63458,11.518467 -14.78278,11.923843 -6.34543,0.41838 -5.7876,1.673522 -27.96176,-21.337403 C 104.89268,-6.1362469 94.43317,4.8811053 87.87854,14.643316 86.41421,13.039524 78.99699,1.01863 70.05858,1.1156811 63.72511,1.1844483 53.17415,16.174161 46.86414,21.616488 40.30897,27.270272 36.37856,28.267647 33.99471,28.294944 30.30074,28.339067 25.84923,26.450798 22.47173,15.758997 Z"
         id="path2244"
         sodipodi:nodetypes="ccsscsscsscsssc" /></g><g
       id="g2233"
       style="stroke:none"><path
         sodipodi:nodetypes="cccsz"
         id="path9706"
         d="m 176.57988,37.972907 c -1.59278,1.03506 -7.7054,13.980618 -7.80158,15.560314 11.86356,19.580712 33.80125,-13.454437 37.77551,-28.552457 0,0 -10.38257,18.198239 -19.78064,18.546175 -11.01641,0.407851 -8.59763,-6.590966 -10.19329,-5.554032 z"
         style="fill:#c64e3b;fill-opacity:1;fill-rule:evenodd;stroke:none;stroke-width:0.125;stroke-linecap:butt;stroke-linejoin:miter;stroke-miterlimit:4;stroke-dasharray:none;stroke-opacity:1" /><path
         sodipodi:nodetypes="ccsscsscsscsssc"
         id="path7673"
         d="m 22.47173,15.758997 -6.6617,16.726759 c 0,0 4.08049,9.732348 10.68066,10.352439 15.12668,1.421164 31.96176,-27.218658 36.7034,-27.079198 4.74165,0.13946 14.35944,7.663301 19.47161,18.163659 6.72965,-13.163585 14.92072,-19.011431 28.50269,-9.255641 7.90203,5.675951 24.42095,28.128211 34.3072,29.234334 10.70462,1.197688 19.90239,-8.988532 24.33579,-27.61311 -6.13625,7.949229 -8.63458,11.518467 -14.78278,11.923843 -6.34543,0.41838 -5.7876,1.673522 -27.96176,-21.337403 C 104.89268,-6.1362469 94.43317,4.8811053 87.87854,14.643316 86.41421,13.039524 78.99699,1.01863 70.05858,1.1156811 63.72511,1.1844483 53.17415,16.174161 46.86414,21.616488 40.30897,27.270272 36.37856,28.267647 33.99471,28.294944 30.30074,28.339067 25.84923,26.450798 22.47173,15.758997 Z"
         style="fill:#c64e3b;fill-opacity:1;fill-rule:evenodd;stroke:none;stroke-width:0.125;stroke-linecap:butt;stroke-linejoin:round;stroke-miterlimit:4;stroke-dasharray:none;stroke-opacity:1" /></g><text
       xml:space="preserve"
       style="font-size:37.3333px;line-height:1.25;font-family:'Libertinus Sans';-inkscape-font-specification:'Libertinus Sans'"
       x="118.85387"
       y="104.38847"
       id="text2912"><tspan
         sodipodi:role="line"
         id="tspan2910"
         x="118.85387"
         y="104.38847"
         style="font-style:normal;font-variant:normal;font-weight:normal;font-stretch:normal;font-size:37.3333px;font-family:'Bad Script';-inkscape-font-specification:'Bad Script'">PGmacs</tspan></text></g></svg>
