<svg width="226.32" height="127.718" viewBox="0 0 169.74 95.789" version="1.1" id="svg32" xml:space="preserve" xmlns="http://www.w3.org/2000/svg"><style id="style2">.B{stroke-width:12.465}.C{stroke-linecap:round}.D{stroke-linejoin:round}.E{stroke-linejoin:miter}</style><g fill="none" stroke="#fff" id="g28" transform="matrix(.12343 0 0 .11867 23.586 32.108)"><path d="M323.205 324.227c2.833-23.601 1.984-27.062 19.563-23.239l4.463.392c13.517.615 31.199-2.174 41.587-7 22.362-10.376 35.622-27.7 13.572-23.148-50.297 10.376-53.755-6.655-53.755-6.655 53.111-78.803 75.313-178.836 56.149-203.322-52.27-66.789-142.748-35.206-144.262-34.386l-.482.089c-9.938-2.062-21.06-3.294-33.554-3.496-22.761-.374-40.032 5.967-53.133 15.904 0 0-161.408-66.498-153.899 83.628 1.597 31.936 45.777 241.655 98.47 178.31 19.259-23.163 37.871-42.748 37.871-42.748 9.242 6.14 20.307 9.272 31.912 8.147l.897-.765c-.281 2.876-.157 5.689.359 9.019-13.572 15.167-9.584 17.83-36.723 23.416-27.457 5.659-11.326 15.734-.797 18.367 12.768 3.193 42.305 7.716 62.268-20.224l-.795 3.188c5.325 4.26 4.965 30.619 5.72 49.452.755 18.833 2.017 36.409 5.856 46.771 3.839 10.362 8.369 37.05 44.036 29.406 29.809-6.388 52.6-15.582 54.677-101.107" fill="#000" stroke="#000" stroke-width="37.395" stroke-linecap="butt" class="E" id="path4"/><path d="M402.395 271.23c-50.302 10.376-53.76-6.655-53.76-6.655 53.111-78.808 75.313-178.843 56.153-203.326-52.27-66.785-142.752-35.2-144.262-34.38l-.486.087c-9.938-2.063-21.06-3.292-33.56-3.496-22.761-.373-40.026 5.967-53.127 15.902 0 0-161.411-66.495-153.904 83.63 1.597 31.938 45.776 241.657 98.471 178.312 19.26-23.163 37.869-42.748 37.869-42.748 9.243 6.14 20.308 9.272 31.908 8.147l.901-.765c-.28 2.876-.152 5.689.361 9.019-13.575 15.167-9.586 17.83-36.723 23.416-27.459 5.659-11.328 15.734-.796 18.367 12.768 3.193 42.307 7.716 62.266-20.224l-.796 3.188c5.319 4.26 9.054 27.711 8.428 48.969-.626 21.258-1.044 35.854 3.147 47.254 4.191 11.4 8.368 37.05 44.042 29.406 29.809-6.388 45.256-22.942 47.405-50.555 1.525-19.631 4.976-16.729 5.194-34.28l2.768-8.309c3.192-26.611.507-35.196 18.872-31.203l4.463.392c13.517.615 31.208-2.174 41.591-7 22.358-10.376 35.618-27.7 13.573-23.148z" fill="#336791" stroke="none" id="path6"/><g class="C B" id="g12"><path d="M215.866 286.484c-1.385 49.516.348 99.377 5.193 111.495 4.845 12.118 15.223 35.688 50.9 28.045 29.806-6.39 40.651-18.756 45.357-46.051 3.466-20.082 10.148-75.854 11.005-87.281M173.104 38.256S11.583-27.76 19.092 122.365c1.597 31.938 45.779 241.664 98.473 178.316 19.256-23.166 36.671-41.335 36.671-41.335M260.349 26.207c-5.591 1.753 89.848-34.889 144.087 34.417 19.159 24.484-3.043 124.519-56.153 203.329" class="D" id="path8"/><path d="M348.282 263.953s3.461 17.036 53.764 6.653c22.04-4.552 8.776 12.774-13.577 23.155-18.345 8.514-59.474 10.696-60.146-1.069-1.729-30.355 21.647-21.133 19.96-28.739-1.525-6.85-11.979-13.573-18.894-30.338-6.037-14.633-82.796-126.849 21.287-110.183 3.813-.789-27.146-99.002-124.553-100.599-97.385-1.597-94.19 119.762-94.19 119.762" stroke-linejoin="bevel" id="path10"/></g><g class="D B" id="g18"><path d="M188.604 274.334c-13.577 15.166-9.584 17.829-36.723 23.417-27.459 5.66-11.326 15.733-.797 18.365 12.768 3.195 42.307 7.718 62.266-20.229 6.078-8.509-.036-22.086-8.385-25.547-4.034-1.671-9.428-3.765-16.361 3.994z" id="path14"/><path d="M187.715 274.069c-1.368-8.917 2.93-19.528 7.536-31.942 6.922-18.626 22.893-37.255 10.117-96.339-9.523-44.029-73.396-9.163-73.436-3.193-.04 5.97 2.889 30.26-1.067 58.548-5.162 36.913 23.488 68.132 56.479 64.938" class="C" id="path16"/></g><g fill="#fff" class="E" id="g24"><path d="M172.517 141.7c-.288 2.039 3.733 7.48 8.976 8.207 5.234.73 9.714-3.522 9.998-5.559.284-2.037-3.732-4.285-8.977-5.015-5.237-.731-9.719.333-9.996 2.367z" stroke-width="4.155" id="path20"/><path d="M331.941 137.543c.284 2.039-3.732 7.48-8.976 8.207-5.238.73-9.718-3.522-10.005-5.559-.277-2.039 3.74-4.285 8.979-5.015 5.239-.73 9.718.333 10.002 2.368z" stroke-width="2.078" id="path22"/></g><path d="M350.676 123.432c.863 15.994-3.445 26.888-3.988 43.914-.804 24.748 11.799 53.074-7.191 81.435" class="B C D" id="path26"/></g><g id="g2437" transform="matrix(.75 0 0 .75 -6.29 1.163)"><g id="g2240" style="fill:#000;fill-opacity:1;stroke:none" transform="translate(-4.993 4.599)"><path style="fill:#000;fill-opacity:1;fill-rule:evenodd;stroke:none;stroke-width:.125;stroke-linecap:butt;stroke-linejoin:miter;stroke-miterlimit:4;stroke-dasharray:none;stroke-opacity:1" d="M176.58 37.973c-1.593 1.035-7.706 13.98-7.802 15.56 11.864 19.58 33.802-13.454 37.776-28.552 0 0-10.383 18.198-19.78 18.546-11.017.408-8.598-6.591-10.194-5.554z" id="path2242"/><path style="fill:#000;fill-opacity:1;fill-rule:evenodd;stroke:none;stroke-width:.125;stroke-linecap:butt;stroke-linejoin:round;stroke-miterlimit:4;stroke-dasharray:none;stroke-opacity:1" d="M22.472 15.759 15.81 32.486s4.08 9.732 10.68 10.352C41.618 44.26 58.453 15.62 63.195 15.76c4.742.14 14.36 7.663 19.472 18.164 6.73-13.164 14.92-19.012 28.502-9.256 7.902 5.676 24.421 28.128 34.308 29.234 10.704 1.198 19.902-8.988 24.335-27.613-6.136 7.95-8.634 11.519-14.782 11.924-6.346.418-5.788 1.674-27.962-21.337S94.433 4.88 87.879 14.643C86.414 13.04 78.997 1.02 70.059 1.116c-6.334.068-16.885 15.058-23.195 20.5-6.555 5.654-10.485 6.652-12.87 6.679-3.693.044-8.145-1.844-11.522-12.536Z" id="path2244"/></g><g id="g2233" style="stroke:none"><path id="path9706" d="M176.58 37.973c-1.593 1.035-7.706 13.98-7.802 15.56 11.864 19.58 33.802-13.454 37.776-28.552 0 0-10.383 18.198-19.78 18.546-11.017.408-8.598-6.591-10.194-5.554z" style="fill:#c64e3b;fill-opacity:1;fill-rule:evenodd;stroke:none;stroke-width:.125;stroke-linecap:butt;stroke-linejoin:miter;stroke-miterlimit:4;stroke-dasharray:none;stroke-opacity:1"/><path id="path7673" d="M22.472 15.759 15.81 32.486s4.08 9.732 10.68 10.352C41.618 44.26 58.453 15.62 63.195 15.76c4.742.14 14.36 7.663 19.472 18.164 6.73-13.164 14.92-19.012 28.502-9.256 7.902 5.676 24.421 28.128 34.308 29.234 10.704 1.198 19.902-8.988 24.335-27.613-6.136 7.95-8.634 11.519-14.782 11.924-6.346.418-5.788 1.674-27.962-21.337S94.433 4.88 87.879 14.643C86.414 13.04 78.997 1.02 70.059 1.116c-6.334.068-16.885 15.058-23.195 20.5-6.555 5.654-10.485 6.652-12.87 6.679-3.693.044-8.145-1.844-11.522-12.536Z" style="fill:#c64e3b;fill-opacity:1;fill-rule:evenodd;stroke:none;stroke-width:.125;stroke-linecap:butt;stroke-linejoin:round;stroke-miterlimit:4;stroke-dasharray:none;stroke-opacity:1"/></g><g aria-label="PGmacs" id="text2912" style="font-size:37.3333px;line-height:1.25;font-family:'Libertinus Sans';-inkscape-font-specification:'Libertinus Sans'"><path d="M123.74 89.641q-3.173-1.02-3.173-1.823 0-.456.31-.674.31-.22.657-.22.346 0 .674.092.328.091.656.219.328.127.657.292.328.145.601.255l3.737-17.519q-1.659.51-2.443 1.915-.328.437-.856.437-.675 0-.675-.638 0-.128.091-.401 1.313-2.497 4.43-3.099.4-.747.93-.747.546 0 .638.565h.145q4.175 0 6.545 2.789 2.388 2.77 2.388 6.198 0 5.76-2.935 9.242-3.172 3.792-8.932 3.792-.894 0-1.878-.256-.42 2.097-1.33 6.271-.894 4.175-1.423 7.2-.09.456-.419.748-.328.292-.62.292-.601 0-.674-.784.62-3.591 1.568-7.966.966-4.393 1.33-6.18zm1.95-1.312q.875.237 2.643.237 1.786 0 3.518-.839 1.75-.839 3.008-2.26 2.625-3.026 2.625-7.292 0-3.318-2.115-5.76-2.114-2.443-5.76-2.443z" style="font-family:'Bad Script';-inkscape-font-specification:'Bad Script'" id="path1231"/><path d="M156.716 102.256q-3.281 2.698-8.586 2.698-2.77 0-4.813-1.787-2.661-2.315-3.39-6.708-.2-1.276-.2-2.48 0-4.247 2.223-10.846 1.531-4.539 3.901-8.294 2.37-3.773 5.414-5.36 1.586-.82 3.245-.82 3.154 0 5.013 1.896 1.86 1.896 2.425 5.086-.055.401-.401.73-.329.31-.73.31-.382 0-.583-.511-.437-1.222-.875-2.26-1.422-3.5-4.849-3.5-2.753 0-5.36 2.624-3.353 3.427-5.54 9.808-2.17 6.38-2.17 10.336 0 3.955 1.294 6.598 1.714 3.5 5.651 3.5 6.471 0 8.805-3.59.838-1.295 1.094-2.917-.055-.2-.073-.401 0-.2-.438-.748-.437-.547-1.805-1.877-1.349-1.35-2.497-2.151-2.406.492-5.45.893-.748-.073-.748-.675 0-.474.438-.856 2.479-1.769 4.229-1.769 1.057 0 2.096.565 4.485-.984 10.154-2.789.893 0 .893.62 0 .182-.146.565-4.776 7.82-7.255 17.136-1.24 4.685-1.987 8.64-.73 3.974-1.185 6.144-.055.455-.4.747-.347.31-.639.31-.602 0-.674-.802 1.24-7.875 2.096-11.339.875-3.445 1.823-6.726zm-.893-11.157q1.677 1.605 1.932 1.878.273.273.766.73.492.455.875.984.692-1.44 1.476-2.79.802-1.348 1.586-2.716-3.3 1.13-6.635 1.914z" style="font-family:'Bad Script';-inkscape-font-specification:'Bad Script'" id="path1233"/><path d="M165.375 104.388q.291-.875.51-2.132.237-1.276.602-2.352 1.55-6.18 2.552-13.107.054-.328.073-.62.036-.291.547-.874.382-.146.565-.146.51 0 .674.638v.291q-.073 2.662-.82 5.797l-.93 3.92q.401-.839.875-1.933 2.005-4.63 3.737-6.544 1.732-1.932 3.755-1.932 1.112 0 1.823.911.711.893.711 2.097 0 .182-.018.328-.018.127-.018.273 2.023-2.46 4.21-3.354.675-.292 1.35-.292.692 0 1.312.656.62.639.62 1.732 0 1.094-.237 2.352-.237 1.258-.602 2.534-.346 1.276-.802 2.588-.437 1.294-1.148 3.61-.711 2.315-.839 3.554-.127 1.222-.218 1.459-.073.237-.329.546-.237.329-.674.329-.857 0-.857-1.823 0-1.149.42-2.48.419-1.33.674-2.242.273-.911.73-2.187.455-1.276 1.13-3.354.674-2.078.893-4.448 0-.766-.201-.893-.182-.146-.674-.146-.493 0-1.495.638-.985.638-2.005 1.804-2.28 2.68-3.428 6.581-.328 1.167-.62 2.005-.291.839-.783 2.297-.474 1.459-.766 2.57-.273 1.094-.492 1.386-.2.292-.674.292-.857 0-.93-.93.437-3.063 1.312-5.414.875-2.352 1.422-3.737.547-1.386 1.057-3.117.51-1.75.51-3.008t-.783-1.258q-2.151 0-5.651 7.073-1.878 3.773-2.279 4.977-.4 1.203-.62 1.84-1.203 3.774-2.278 3.774-.365 0-.638-.164-.255-.146-.255-.365z" style="font-family:'Bad Script';-inkscape-font-specification:'Bad Script'" id="path1235"/><path d="M192.3 104.388q-2.134 0-2.134-2.68 0-2.679 1.987-6.562 2.005-3.9 4.703-6.726 2.698-2.844 4.394-2.844 1.713 0 1.95 1.495.073.456.11.966.164-.11.4-.11.857 0 .857.82v.147q0 .054-.455 1.64-.456 1.586-1.04 5.287-.583 3.7-.583 6.325l.383.255q.219.128.547.42.328.273.328.656t-.237.693q-.237.291-.674.291-.894 0-1.623-.911-.71-.912-.71-1.969 0-2.278 1.239-7.838-1.55 3.244-4.01 6.252-2.462 3.008-3.41 3.7-.93.693-2.023.693zm-.274-2.606q0 .674.565.674.4 0 .674-.273 3.774-3.245 6.763-8.987 1.696-3.281 1.787-3.774.11-.492.11-.838 0-.347-.183-.656-.182-.31-.51-.31-.329 0-.967.346-1.403.766-3.463 3.263-2.042 2.497-3.41 5.432-1.366 2.935-1.366 5.123z" style="font-family:'Bad Script';-inkscape-font-specification:'Bad Script'" id="path1237"/><path d="M209.289 99.685q0 3.318 2.424 3.318 1.203 0 2.26-1.167.402-.455.748-.82.346-.365.71-.365.73 0 .73.639 0 1.166-1.495 2.37-1.494 1.184-3.39 1.184-1.878 0-2.862-1.385-.966-1.404-.966-3.154 0-3.263 1.203-6.763 1.221-3.5 3.19-5.87 1.987-2.37 4.192-2.37 1.605 0 2.115 1.149.128.31.292.802.182.474.4.602.147.237.147.583 0 .328-.31.62-.31.291-.693.291-.784 0-1.003-1.148-.218-1.167-1.221-1.167-1.404 0-2.917 2.133-1.494 2.133-2.533 5.177-1.021 3.044-1.021 5.341z" style="font-family:'Bad Script';-inkscape-font-specification:'Bad Script'" id="path1239"/><path d="M226.041 86.961q-1.823 0-1.823 2.115 0 1.404.657 2.898.656 1.495 1.112 2.388 1.768 3.519 1.768 5.396 0 1.86-1.13 3.172-1.13 1.313-3.263 1.568h-.237q-2.06 0-2.99-2.534-.036-.091-.036-.164v-.182q0-.383.237-.62.236-.255.51-.31h.2q.365 0 .584.292.237.291.437.656.2.346.438.638.237.292.82.292 1.24 0 1.969-.766.747-.784.747-1.732t-.273-1.768q-.456-1.404-1.568-3.5-1.86-3.445-1.86-5.36 0-1.913.967-3.135.966-1.221 2.734-1.221 1.094 0 1.878.456 1.476.856 1.476 1.932 0 1.057-.893 1.057-.328 0-.547-.237-.2-.255-.437-.547-.638-.784-1.477-.784z" style="font-family:'Bad Script';-inkscape-font-specification:'Bad Script'" id="path1241"/></g></g></svg>